<?xml version='1.0' encoding='iso-8859-1'?>
<!DOCTYPE svg PUBLIC '-//W3C//DTD SVG 1.1//EN' 'http://www.w3.org/Graphics/SVG/1.1/DTD/svg11.dtd'>
<svg version="1.1" xmlns="http://www.w3.org/2000/svg" viewBox="0 0 406 406" xmlns:xlink="http://www.w3.org/1999/xlink" enable-background="new 0 0 406 406">
  <g>
    <path d="M271.672,143.628H134.328c-32.738,0-59.372,26.634-59.372,59.372s26.634,59.372,59.372,59.372h137.344   c32.738,0,59.372-26.634,59.372-59.372S304.41,143.628,271.672,143.628z M94.956,203c0-21.71,17.662-39.372,39.372-39.372   S173.7,181.29,173.7,203s-17.662,39.372-39.372,39.372S94.956,224.71,94.956,203z M271.672,242.372h-92.957   C188.028,231.885,193.7,218.095,193.7,203s-5.672-28.885-14.985-39.372h92.957c21.71,0,39.372,17.662,39.372,39.372   S293.382,242.372,271.672,242.372z"/>
    <path d="M271.672,287.256H134.328c-32.738,0-59.372,26.634-59.372,59.372S101.59,406,134.328,406h137.344   c32.738,0,59.372-26.634,59.372-59.372S304.41,287.256,271.672,287.256z M94.956,346.628c0-21.71,17.662-39.372,39.372-39.372   s39.372,17.662,39.372,39.372S156.038,386,134.328,386S94.956,368.338,94.956,346.628z M271.672,386h-92.957   c9.313-10.487,14.985-24.277,14.985-39.372s-5.672-28.885-14.985-39.372h92.957c21.71,0,39.372,17.662,39.372,39.372   S293.382,386,271.672,386z"/>
    <path d="M134.328,118.744h137.344c32.738,0,59.372-26.634,59.372-59.372S304.41,0,271.672,0H134.328   C101.59,0,74.956,26.634,74.956,59.372S101.59,118.744,134.328,118.744z M311.044,59.372c0,21.71-17.662,39.372-39.372,39.372   S232.3,81.082,232.3,59.372S249.962,20,271.672,20S311.044,37.662,311.044,59.372z M134.328,20h92.957   C217.972,30.487,212.3,44.277,212.3,59.372s5.672,28.885,14.985,39.372h-92.957c-21.71,0-39.372-17.662-39.372-39.372   S112.618,20,134.328,20z"/>
  </g>
</svg>
